<mxfile host="app.diagrams.net" agent="Mozilla/5.0 (Macintosh; Intel Mac OS X 10.15; rv:137.0) Gecko/20100101 Firefox/137.0" version="27.0.3">
  <diagram name="Page-1" id="gw_MRVm5G41a429nC-YR">
    <mxGraphModel grid="1" page="1" gridSize="10" guides="1" tooltips="1" connect="1" arrows="1" fold="1" pageScale="1" pageWidth="1169" pageHeight="827" math="0" shadow="0">
      <root>
        <mxCell id="0" />
        <mxCell id="1" parent="0" />
        <mxCell id="kppgVx1TvtSQSW940kR7-1" value="" style="ellipse;html=1;shape=startState;fillColor=#000000;strokeColor=#ff0000;rounded=1;shadow=0;comic=0;labelBackgroundColor=none;fontFamily=Verdana;fontSize=12;fontColor=#000000;align=center;direction=south;" vertex="1" parent="1">
          <mxGeometry x="-690" y="-552" width="30" height="30" as="geometry" />
        </mxCell>
        <mxCell id="kppgVx1TvtSQSW940kR7-2" value="Active" style="rounded=1;whiteSpace=wrap;html=1;arcSize=24;fillColor=#ffffc0;strokeColor=#ff0000;shadow=0;comic=0;labelBackgroundColor=none;fontFamily=Verdana;fontSize=12;fontColor=#000000;align=center;" vertex="1" parent="1">
          <mxGeometry x="-560" y="-162" width="120" height="60" as="geometry" />
        </mxCell>
        <mxCell id="kppgVx1TvtSQSW940kR7-3" value="Disconnected" style="rounded=1;whiteSpace=wrap;html=1;arcSize=24;fillColor=#ffffc0;strokeColor=#ff0000;shadow=0;comic=0;labelBackgroundColor=none;fontFamily=Verdana;fontSize=12;fontColor=#000000;align=center;" vertex="1" parent="1">
          <mxGeometry x="-330" y="-398.75" width="120" height="67.5" as="geometry" />
        </mxCell>
        <mxCell id="kppgVx1TvtSQSW940kR7-4" value="Awake" style="rounded=1;whiteSpace=wrap;html=1;arcSize=24;fillColor=#ffffc0;strokeColor=#ff0000;shadow=0;comic=0;labelBackgroundColor=none;fontFamily=Verdana;fontSize=12;fontColor=#000000;align=center;" vertex="1" parent="1">
          <mxGeometry x="-70" y="-162" width="120" height="60" as="geometry" />
        </mxCell>
        <mxCell id="kppgVx1TvtSQSW940kR7-7" style="endArrow=classic;html=1;rounded=1;entryX=0.5;entryY=0.2;entryDx=0;entryDy=0;exitX=0.25;exitY=0;exitDx=0;exitDy=0;entryPerimeter=0;" edge="1" parent="1" source="kppgVx1TvtSQSW940kR7-3" target="kppgVx1TvtSQSW940kR7-1">
          <mxGeometry relative="1" as="geometry">
            <mxPoint x="-333.01" y="-398.75" as="sourcePoint" />
            <mxPoint x="-590" y="-537.01" as="targetPoint" />
            <Array as="points">
              <mxPoint x="-300" y="-537" />
            </Array>
          </mxGeometry>
        </mxCell>
        <mxCell id="kppgVx1TvtSQSW940kR7-8" value="&lt;div&gt;Session&lt;/div&gt;&lt;div&gt;Expiry&lt;/div&gt;" style="edgeLabel;html=1;align=center;verticalAlign=middle;resizable=0;points=[];" connectable="0" vertex="1" parent="kppgVx1TvtSQSW940kR7-7">
          <mxGeometry x="0.0654" relative="1" as="geometry">
            <mxPoint x="-2" as="offset" />
          </mxGeometry>
        </mxCell>
        <mxCell id="kppgVx1TvtSQSW940kR7-9" value="Asleep" style="rounded=1;whiteSpace=wrap;html=1;arcSize=20;fillColor=#ffffc0;strokeColor=#ff0000;shadow=0;comic=0;labelBackgroundColor=none;fontFamily=Verdana;fontSize=12;fontColor=#000000;align=center;" vertex="1" parent="1">
          <mxGeometry x="-350" y="-40" width="120" height="60" as="geometry" />
        </mxCell>
        <mxCell id="kppgVx1TvtSQSW940kR7-15" value="" style="line;strokeWidth=1;fillColor=none;align=left;verticalAlign=middle;spacingTop=-1;spacingLeft=3;spacingRight=3;rotatable=0;labelPosition=right;points=[];portConstraint=eastwest;strokeColor=inherit;" vertex="1" parent="1">
          <mxGeometry x="-760" y="-280" width="920" height="8" as="geometry" />
        </mxCell>
        <mxCell id="kppgVx1TvtSQSW940kR7-16" value="" style="line;strokeWidth=1;fillColor=none;align=left;verticalAlign=middle;spacingTop=-1;spacingLeft=3;spacingRight=3;rotatable=0;labelPosition=right;points=[];portConstraint=eastwest;strokeColor=inherit;" vertex="1" parent="1">
          <mxGeometry x="-760" y="-470" width="920" height="8" as="geometry" />
        </mxCell>
        <mxCell id="kppgVx1TvtSQSW940kR7-17" value="" style="endArrow=classic;html=1;rounded=1;entryX=1;entryY=0.5;entryDx=0;entryDy=0;exitX=1;exitY=0.5;exitDx=0;exitDy=0;" edge="1" parent="1" source="kppgVx1TvtSQSW940kR7-9" target="SEXhtK8res9pNm89w3yQ-1">
          <mxGeometry width="50" height="50" relative="1" as="geometry">
            <mxPoint x="-300" y="-70" as="sourcePoint" />
            <mxPoint x="-250" y="-120" as="targetPoint" />
            <Array as="points">
              <mxPoint x="-130" y="-30" />
            </Array>
          </mxGeometry>
        </mxCell>
        <mxCell id="kppgVx1TvtSQSW940kR7-18" value="C-PINGREQ" style="edgeLabel;html=1;align=center;verticalAlign=middle;resizable=0;points=[];" connectable="0" vertex="1" parent="kppgVx1TvtSQSW940kR7-17">
          <mxGeometry x="-0.2" y="-1" relative="1" as="geometry">
            <mxPoint as="offset" />
          </mxGeometry>
        </mxCell>
        <mxCell id="kppgVx1TvtSQSW940kR7-19" value="" style="endArrow=classic;html=1;rounded=0;exitX=0.5;exitY=0;exitDx=0;exitDy=0;entryX=0.5;entryY=1;entryDx=0;entryDy=0;" edge="1" parent="1" source="SEXhtK8res9pNm89w3yQ-1" target="kppgVx1TvtSQSW940kR7-4">
          <mxGeometry width="50" height="50" relative="1" as="geometry">
            <mxPoint x="-300" y="-70" as="sourcePoint" />
            <mxPoint x="-250" y="-120" as="targetPoint" />
          </mxGeometry>
        </mxCell>
        <mxCell id="kppgVx1TvtSQSW940kR7-20" value="&lt;div&gt;S-PUBLISH&lt;br&gt;&lt;/div&gt;" style="edgeLabel;html=1;align=center;verticalAlign=middle;resizable=0;points=[];" connectable="0" vertex="1" parent="kppgVx1TvtSQSW940kR7-19">
          <mxGeometry x="0.2167" y="1" relative="1" as="geometry">
            <mxPoint x="1" y="8" as="offset" />
          </mxGeometry>
        </mxCell>
        <mxCell id="kppgVx1TvtSQSW940kR7-25" value="&lt;div align=&quot;left&quot;&gt;Session&lt;/div&gt;&lt;div align=&quot;left&quot;&gt;&lt;strike&gt;Virtual Connection&lt;/strike&gt;&lt;br&gt;&lt;/div&gt;" style="text;html=1;align=left;verticalAlign=middle;resizable=0;points=[];autosize=1;strokeColor=none;fillColor=none;" vertex="1" parent="1">
          <mxGeometry x="60" y="-462" width="120" height="40" as="geometry" />
        </mxCell>
        <mxCell id="kppgVx1TvtSQSW940kR7-26" value="&lt;div align=&quot;left&quot;&gt;Session&lt;/div&gt;&lt;div align=&quot;left&quot;&gt;Virtual Connection&lt;br&gt;&lt;/div&gt;" style="text;html=1;align=left;verticalAlign=middle;resizable=0;points=[];autosize=1;strokeColor=none;fillColor=none;" vertex="1" parent="1">
          <mxGeometry x="60" y="-202" width="120" height="40" as="geometry" />
        </mxCell>
        <mxCell id="kppgVx1TvtSQSW940kR7-27" value="&lt;div align=&quot;left&quot;&gt;&lt;strike&gt;Session&lt;/strike&gt;&lt;/div&gt;&lt;div align=&quot;left&quot;&gt;&lt;strike&gt;Virtual Connection&lt;br&gt;&lt;/strike&gt;&lt;/div&gt;" style="text;html=1;align=left;verticalAlign=middle;resizable=0;points=[];autosize=1;strokeColor=none;fillColor=none;" vertex="1" parent="1">
          <mxGeometry x="60" y="-610" width="120" height="40" as="geometry" />
        </mxCell>
        <mxCell id="kppgVx1TvtSQSW940kR7-31" value="" style="endArrow=classic;html=1;rounded=0;exitX=0.008;exitY=0.617;exitDx=0;exitDy=0;exitPerimeter=0;entryX=0.929;entryY=0.733;entryDx=0;entryDy=0;entryPerimeter=0;" edge="1" parent="1" source="kppgVx1TvtSQSW940kR7-9" target="kppgVx1TvtSQSW940kR7-40">
          <mxGeometry width="50" height="50" relative="1" as="geometry">
            <mxPoint x="-300" y="-70" as="sourcePoint" />
            <mxPoint x="-630" y="-10" as="targetPoint" />
            <Array as="points" />
          </mxGeometry>
        </mxCell>
        <mxCell id="kppgVx1TvtSQSW940kR7-32" value="SLEEPREQ" style="edgeLabel;html=1;align=center;verticalAlign=middle;resizable=0;points=[];" connectable="0" vertex="1" parent="kppgVx1TvtSQSW940kR7-31">
          <mxGeometry x="0.1967" y="1" relative="1" as="geometry">
            <mxPoint x="43" y="-2" as="offset" />
          </mxGeometry>
        </mxCell>
        <mxCell id="kppgVx1TvtSQSW940kR7-33" value="&lt;div&gt;None&lt;br&gt;&lt;/div&gt;" style="text;html=1;align=center;verticalAlign=middle;resizable=0;points=[];autosize=1;strokeColor=none;fillColor=none;" vertex="1" parent="1">
          <mxGeometry x="-700" y="-570" width="50" height="30" as="geometry" />
        </mxCell>
        <mxCell id="kppgVx1TvtSQSW940kR7-34" value="Connecting" style="ellipse;whiteSpace=wrap;html=1;" vertex="1" parent="1">
          <mxGeometry x="-717" y="-240" width="84" height="60" as="geometry" />
        </mxCell>
        <mxCell id="kppgVx1TvtSQSW940kR7-35" style="endArrow=classic;html=1;rounded=1;entryX=0.5;entryY=0;entryDx=0;entryDy=0;exitX=0.767;exitY=0.467;exitDx=0;exitDy=0;exitPerimeter=0;" edge="1" parent="1" source="kppgVx1TvtSQSW940kR7-1" target="kppgVx1TvtSQSW940kR7-34">
          <mxGeometry relative="1" as="geometry">
            <mxPoint x="-437.01" y="-283.75" as="sourcePoint" />
            <mxPoint x="-770" y="-422" as="targetPoint" />
            <Array as="points" />
          </mxGeometry>
        </mxCell>
        <mxCell id="kppgVx1TvtSQSW940kR7-36" value="&lt;div&gt;CONNECT&lt;br&gt;&lt;/div&gt;" style="edgeLabel;html=1;align=center;verticalAlign=middle;resizable=0;points=[];" connectable="0" vertex="1" parent="kppgVx1TvtSQSW940kR7-35">
          <mxGeometry x="0.0654" relative="1" as="geometry">
            <mxPoint x="-2" as="offset" />
          </mxGeometry>
        </mxCell>
        <mxCell id="kppgVx1TvtSQSW940kR7-37" style="endArrow=classic;html=1;rounded=1;entryX=0;entryY=0.5;entryDx=0;entryDy=0;exitX=1;exitY=1;exitDx=0;exitDy=0;" edge="1" parent="1" source="kppgVx1TvtSQSW940kR7-34" target="kppgVx1TvtSQSW940kR7-2">
          <mxGeometry relative="1" as="geometry">
            <mxPoint x="-550" y="-390" as="sourcePoint" />
            <mxPoint x="-551" y="-101" as="targetPoint" />
            <Array as="points" />
          </mxGeometry>
        </mxCell>
        <mxCell id="kppgVx1TvtSQSW940kR7-38" value="CONNACK" style="edgeLabel;html=1;align=center;verticalAlign=middle;resizable=0;points=[];" connectable="0" vertex="1" parent="kppgVx1TvtSQSW940kR7-37">
          <mxGeometry x="0.0654" relative="1" as="geometry">
            <mxPoint x="-2" as="offset" />
          </mxGeometry>
        </mxCell>
        <mxCell id="kppgVx1TvtSQSW940kR7-40" value="&lt;div&gt;Going to&lt;/div&gt;&lt;div&gt;sleep&lt;br&gt;&lt;/div&gt;" style="ellipse;whiteSpace=wrap;html=1;" vertex="1" parent="1">
          <mxGeometry x="-710" y="-50" width="84" height="60" as="geometry" />
        </mxCell>
        <mxCell id="kppgVx1TvtSQSW940kR7-41" style="endArrow=classic;html=1;rounded=1;exitX=0;exitY=0.75;exitDx=0;exitDy=0;" edge="1" parent="1" source="kppgVx1TvtSQSW940kR7-2" target="kppgVx1TvtSQSW940kR7-40">
          <mxGeometry relative="1" as="geometry">
            <mxPoint x="-560" as="sourcePoint" />
            <mxPoint x="-455" y="57" as="targetPoint" />
            <Array as="points" />
          </mxGeometry>
        </mxCell>
        <mxCell id="kppgVx1TvtSQSW940kR7-42" value="SLEEPREQ" style="edgeLabel;html=1;align=center;verticalAlign=middle;resizable=0;points=[];" connectable="0" vertex="1" parent="kppgVx1TvtSQSW940kR7-41">
          <mxGeometry x="0.0654" relative="1" as="geometry">
            <mxPoint x="-2" as="offset" />
          </mxGeometry>
        </mxCell>
        <mxCell id="kppgVx1TvtSQSW940kR7-43" style="endArrow=classic;html=1;rounded=1;entryX=0;entryY=0.25;entryDx=0;entryDy=0;exitX=1;exitY=0.383;exitDx=0;exitDy=0;exitPerimeter=0;" edge="1" parent="1" source="kppgVx1TvtSQSW940kR7-40" target="kppgVx1TvtSQSW940kR7-9">
          <mxGeometry relative="1" as="geometry">
            <mxPoint x="-580" as="sourcePoint" />
            <mxPoint x="-475" y="57" as="targetPoint" />
            <Array as="points" />
          </mxGeometry>
        </mxCell>
        <mxCell id="kppgVx1TvtSQSW940kR7-44" value="SLEEPRESP" style="edgeLabel;html=1;align=center;verticalAlign=middle;resizable=0;points=[];" connectable="0" vertex="1" parent="kppgVx1TvtSQSW940kR7-43">
          <mxGeometry x="0.0654" relative="1" as="geometry">
            <mxPoint x="-2" as="offset" />
          </mxGeometry>
        </mxCell>
        <mxCell id="kppgVx1TvtSQSW940kR7-45" style="endArrow=classic;html=1;rounded=1;entryX=1;entryY=0;entryDx=0;entryDy=0;exitX=0;exitY=0.352;exitDx=0;exitDy=0;exitPerimeter=0;" edge="1" parent="1" source="kppgVx1TvtSQSW940kR7-3" target="kppgVx1TvtSQSW940kR7-34">
          <mxGeometry relative="1" as="geometry">
            <mxPoint x="-370" y="-350" as="sourcePoint" />
            <mxPoint x="-405" y="-303" as="targetPoint" />
            <Array as="points">
              <mxPoint x="-645" y="-375" />
            </Array>
          </mxGeometry>
        </mxCell>
        <mxCell id="kppgVx1TvtSQSW940kR7-46" value="CONNECT" style="edgeLabel;html=1;align=center;verticalAlign=middle;resizable=0;points=[];" connectable="0" vertex="1" parent="kppgVx1TvtSQSW940kR7-45">
          <mxGeometry x="0.0654" relative="1" as="geometry">
            <mxPoint x="-2" as="offset" />
          </mxGeometry>
        </mxCell>
        <mxCell id="kppgVx1TvtSQSW940kR7-53" style="endArrow=classic;html=1;rounded=1;entryX=0;entryY=0.856;entryDx=0;entryDy=0;exitX=0.5;exitY=0;exitDx=0;exitDy=0;entryPerimeter=0;" edge="1" parent="1" source="kppgVx1TvtSQSW940kR7-2" target="kppgVx1TvtSQSW940kR7-3">
          <mxGeometry relative="1" as="geometry">
            <mxPoint x="-290" y="-230" as="sourcePoint" />
            <mxPoint x="-290" y="-321" as="targetPoint" />
            <Array as="points">
              <mxPoint x="-500" y="-340" />
            </Array>
          </mxGeometry>
        </mxCell>
        <mxCell id="kppgVx1TvtSQSW940kR7-54" value="&lt;div&gt;S-DISCONNECT&lt;/div&gt;(Keep Alive)" style="edgeLabel;html=1;align=center;verticalAlign=middle;resizable=0;points=[];" connectable="0" vertex="1" parent="kppgVx1TvtSQSW940kR7-53">
          <mxGeometry x="0.0654" relative="1" as="geometry">
            <mxPoint x="-2" y="80" as="offset" />
          </mxGeometry>
        </mxCell>
        <mxCell id="SEXhtK8res9pNm89w3yQ-8" value="C-DISCONNECT" style="edgeLabel;html=1;align=center;verticalAlign=middle;resizable=0;points=[];" connectable="0" vertex="1" parent="kppgVx1TvtSQSW940kR7-53">
          <mxGeometry x="-0.7874" y="-3" relative="1" as="geometry">
            <mxPoint as="offset" />
          </mxGeometry>
        </mxCell>
        <mxCell id="kppgVx1TvtSQSW940kR7-57" style="endArrow=classic;html=1;rounded=1;entryX=0.75;entryY=1;entryDx=0;entryDy=0;exitX=0.9;exitY=0;exitDx=0;exitDy=0;exitPerimeter=0;" edge="1" parent="1">
          <mxGeometry relative="1" as="geometry">
            <mxPoint x="-280" y="-40" as="sourcePoint" />
            <mxPoint x="-278" y="-331.25" as="targetPoint" />
            <Array as="points" />
          </mxGeometry>
        </mxCell>
        <mxCell id="kppgVx1TvtSQSW940kR7-58" value="&lt;div&gt;S-DISCONNECT&lt;/div&gt;(Sleep timeout)" style="edgeLabel;html=1;align=center;verticalAlign=middle;resizable=0;points=[];" connectable="0" vertex="1" parent="kppgVx1TvtSQSW940kR7-57">
          <mxGeometry x="0.0654" relative="1" as="geometry">
            <mxPoint x="-1" y="-45" as="offset" />
          </mxGeometry>
        </mxCell>
        <mxCell id="SEXhtK8res9pNm89w3yQ-9" value="&lt;div&gt;C-DISCONNECT&lt;/div&gt;&lt;div&gt;(Deliberate or&lt;/div&gt;&lt;div&gt;Retry Timeout)&lt;/div&gt;" style="edgeLabel;html=1;align=center;verticalAlign=middle;resizable=0;points=[];" connectable="0" vertex="1" parent="kppgVx1TvtSQSW940kR7-57">
          <mxGeometry x="-0.1003" y="-2" relative="1" as="geometry">
            <mxPoint as="offset" />
          </mxGeometry>
        </mxCell>
        <mxCell id="kppgVx1TvtSQSW940kR7-59" style="endArrow=classic;html=1;rounded=1;entryX=1;entryY=0.5;entryDx=0;entryDy=0;exitX=0.5;exitY=0;exitDx=0;exitDy=0;" edge="1" parent="1" source="kppgVx1TvtSQSW940kR7-4" target="kppgVx1TvtSQSW940kR7-3">
          <mxGeometry relative="1" as="geometry">
            <mxPoint x="-30" y="-210" as="sourcePoint" />
            <mxPoint x="140" y="-389" as="targetPoint" />
            <Array as="points">
              <mxPoint x="-10" y="-365" />
            </Array>
          </mxGeometry>
        </mxCell>
        <mxCell id="kppgVx1TvtSQSW940kR7-60" value="&lt;div&gt;S-DISCONNECT&lt;/div&gt;(Keep Alive)" style="edgeLabel;html=1;align=center;verticalAlign=middle;resizable=0;points=[];" connectable="0" vertex="1" parent="kppgVx1TvtSQSW940kR7-59">
          <mxGeometry x="0.0654" relative="1" as="geometry">
            <mxPoint x="12" y="115" as="offset" />
          </mxGeometry>
        </mxCell>
        <mxCell id="SEXhtK8res9pNm89w3yQ-10" value="&lt;div&gt;C-DISCONNECT&lt;/div&gt;&lt;div&gt;(Deliberate or&lt;/div&gt;&lt;div&gt;Retry Timeout)&lt;/div&gt;" style="edgeLabel;html=1;align=center;verticalAlign=middle;resizable=0;points=[];" connectable="0" vertex="1" parent="kppgVx1TvtSQSW940kR7-59">
          <mxGeometry x="-0.8164" y="-1" relative="1" as="geometry">
            <mxPoint as="offset" />
          </mxGeometry>
        </mxCell>
        <mxCell id="kppgVx1TvtSQSW940kR7-68" value="&lt;div style=&quot;font-size: 15px;&quot; align=&quot;left&quot;&gt;&lt;font style=&quot;font-size: 15px;&quot;&gt;Notes:&lt;/font&gt;&lt;/div&gt;&lt;div style=&quot;font-size: 15px;&quot; align=&quot;left&quot;&gt;&lt;font style=&quot;font-size: 15px;&quot;&gt;1. Whether existing session state exists and is reused, is not shown.&lt;br&gt;&lt;/font&gt;&lt;/div&gt;&lt;div style=&quot;font-size: 15px;&quot; align=&quot;left&quot;&gt;&lt;font style=&quot;font-size: 15px;&quot;&gt;2. When a response to a packet is expected but not received, the Client goes&lt;/font&gt;&lt;/div&gt;&lt;div style=&quot;font-size: 15px;&quot; align=&quot;left&quot;&gt;&lt;font style=&quot;font-size: 15px;&quot;&gt;into Retry mode - this is not shown.&lt;/font&gt;&lt;/div&gt;&lt;div style=&quot;font-size: 15px;&quot; align=&quot;left&quot;&gt;&lt;font style=&quot;font-size: 15px;&quot;&gt;3. If the Server disconnect does not reach the Client, the next packet the Client &lt;br&gt;&lt;/font&gt;&lt;/div&gt;&lt;div style=&quot;font-size: 15px;&quot; align=&quot;left&quot;&gt;&lt;font style=&quot;font-size: 15px;&quot;&gt;sends which is not a CONNECT, will be met with a DISCONNECT response.&lt;/font&gt;&lt;br&gt;&lt;/div&gt;" style="text;html=1;align=left;verticalAlign=middle;resizable=0;points=[];autosize=1;strokeColor=none;fillColor=none;" vertex="1" parent="1">
          <mxGeometry x="-602" y="90" width="550" height="120" as="geometry" />
        </mxCell>
        <mxCell id="SEXhtK8res9pNm89w3yQ-1" value="Waking" style="ellipse;whiteSpace=wrap;html=1;" vertex="1" parent="1">
          <mxGeometry x="-52" y="-40" width="84" height="60" as="geometry" />
        </mxCell>
        <mxCell id="SEXhtK8res9pNm89w3yQ-2" value="" style="endArrow=classic;html=1;rounded=0;exitX=0;exitY=0.5;exitDx=0;exitDy=0;entryX=1;entryY=0.25;entryDx=0;entryDy=0;" edge="1" parent="1" source="kppgVx1TvtSQSW940kR7-4" target="kppgVx1TvtSQSW940kR7-9">
          <mxGeometry width="50" height="50" relative="1" as="geometry">
            <mxPoint y="-30" as="sourcePoint" />
            <mxPoint y="-92" as="targetPoint" />
          </mxGeometry>
        </mxCell>
        <mxCell id="SEXhtK8res9pNm89w3yQ-3" value="&lt;div&gt;S-PINGRESP&lt;br&gt;&lt;/div&gt;" style="edgeLabel;html=1;align=center;verticalAlign=middle;resizable=0;points=[];" connectable="0" vertex="1" parent="SEXhtK8res9pNm89w3yQ-2">
          <mxGeometry x="0.2167" y="1" relative="1" as="geometry">
            <mxPoint x="17" y="-14" as="offset" />
          </mxGeometry>
        </mxCell>
        <mxCell id="SEXhtK8res9pNm89w3yQ-4" value="" style="endArrow=classic;html=1;rounded=1;entryX=1;entryY=0.75;entryDx=0;entryDy=0;exitX=0;exitY=1;exitDx=0;exitDy=0;" edge="1" parent="1" source="SEXhtK8res9pNm89w3yQ-1" target="kppgVx1TvtSQSW940kR7-9">
          <mxGeometry width="50" height="50" relative="1" as="geometry">
            <mxPoint x="-60" y="-122" as="sourcePoint" />
            <mxPoint x="-220" y="-15" as="targetPoint" />
            <Array as="points">
              <mxPoint x="-130" y="30" />
            </Array>
          </mxGeometry>
        </mxCell>
        <mxCell id="SEXhtK8res9pNm89w3yQ-5" value="&lt;div&gt;S-PINGRESP&lt;br&gt;&lt;/div&gt;" style="edgeLabel;html=1;align=center;verticalAlign=middle;resizable=0;points=[];" connectable="0" vertex="1" parent="SEXhtK8res9pNm89w3yQ-4">
          <mxGeometry x="0.2167" y="1" relative="1" as="geometry">
            <mxPoint x="36" y="-4" as="offset" />
          </mxGeometry>
        </mxCell>
        <mxCell id="SEXhtK8res9pNm89w3yQ-6" value="" style="endArrow=classic;html=1;rounded=1;exitX=0.5;exitY=1;exitDx=0;exitDy=0;entryX=0;entryY=0.5;entryDx=0;entryDy=0;" edge="1" parent="1" source="kppgVx1TvtSQSW940kR7-9" target="kppgVx1TvtSQSW940kR7-34">
          <mxGeometry width="50" height="50" relative="1" as="geometry">
            <mxPoint x="-350" y="10" as="sourcePoint" />
            <mxPoint x="-720" y="-210" as="targetPoint" />
            <Array as="points">
              <mxPoint x="-290" y="40" />
              <mxPoint x="-580" y="40" />
              <mxPoint x="-760" y="40" />
              <mxPoint x="-760" y="-210" />
            </Array>
          </mxGeometry>
        </mxCell>
        <mxCell id="SEXhtK8res9pNm89w3yQ-7" value="CONNECT" style="edgeLabel;html=1;align=center;verticalAlign=middle;resizable=0;points=[];" connectable="0" vertex="1" parent="SEXhtK8res9pNm89w3yQ-6">
          <mxGeometry x="-0.4294" y="4" relative="1" as="geometry">
            <mxPoint y="-4" as="offset" />
          </mxGeometry>
        </mxCell>
        <mxCell id="Uogd-qkVtveLDElIk1zA-1" style="endArrow=classic;html=1;rounded=1;entryX=0;entryY=0;entryDx=0;entryDy=0;exitX=1;exitY=0.5;exitDx=0;exitDy=0;" edge="1" parent="1" source="kppgVx1TvtSQSW940kR7-4" target="kppgVx1TvtSQSW940kR7-34">
          <mxGeometry relative="1" as="geometry">
            <mxPoint y="-152" as="sourcePoint" />
            <mxPoint x="-200" y="-355" as="targetPoint" />
            <Array as="points">
              <mxPoint x="110" y="-132" />
              <mxPoint x="110" y="70" />
              <mxPoint x="-340" y="70" />
              <mxPoint x="-790" y="70" />
              <mxPoint x="-790" y="-231" />
            </Array>
          </mxGeometry>
        </mxCell>
        <mxCell id="Uogd-qkVtveLDElIk1zA-3" value="CONNECT" style="edgeLabel;html=1;align=center;verticalAlign=middle;resizable=0;points=[];" connectable="0" vertex="1" parent="Uogd-qkVtveLDElIk1zA-1">
          <mxGeometry x="-0.8164" y="-1" relative="1" as="geometry">
            <mxPoint x="-319" y="120" as="offset" />
          </mxGeometry>
        </mxCell>
      </root>
    </mxGraphModel>
  </diagram>
</mxfile>
